<svg width="58" height="58" viewBox="0 0 58 58" fill="none" xmlns="http://www.w3.org/2000/svg">
<rect width="58" height="58" rx="5" fill="#0573B8"/>
<path fill-rule="evenodd" clip-rule="evenodd" d="M40.89 29.36C40.83 28.69 40.96 27.79 40.89 27.01C40.8699 26.6125 40.7749 26.2223 40.61 25.86C40.4798 25.602 40.2643 25.397 40 25.28C39.6262 25.1333 39.2371 25.0293 38.84 24.97C38.2065 24.8543 37.564 24.794 36.92 24.79C35.9733 24.7957 35.028 24.8625 34.09 24.99C31.96 25.24 32.7 25.55 32.7 23.12L32.57 20.05C32.5692 19.5642 32.5291 19.0793 32.45 18.6C32.3681 18.2038 32.1484 17.8495 31.83 17.6C31.6084 17.4302 31.3525 17.3108 31.08 17.25C30.74 17.16 30.37 17.13 30.08 17.07C29.8155 17.0264 29.5481 17.003 29.28 17H28.49C27.8008 17.0766 27.1267 17.2552 26.49 17.53C26.0318 17.7018 25.6207 17.9794 25.29 18.34C25.1655 18.4891 25.0827 18.6685 25.05 18.86C25.0194 19.1926 25.0194 19.5274 25.05 19.86L25.29 24.66C25.303 24.7314 25.3406 24.796 25.3964 24.8425C25.4521 24.8891 25.5224 24.9145 25.595 24.9145C25.6676 24.9145 25.7379 24.8891 25.7936 24.8425C25.8494 24.796 25.887 24.7314 25.9 24.66L25.73 19.86V19.09C25.7307 18.9819 25.7657 18.8769 25.83 18.79C26.094 18.5262 26.4158 18.3276 26.77 18.21C27.5442 17.8843 28.3809 17.734 29.22 17.77C29.9398 17.7953 30.6486 17.9547 31.31 18.24C31.4756 18.3862 31.5881 18.5831 31.63 18.8C31.6835 19.2379 31.7069 19.6789 31.7 20.12L31.78 23.12C31.7026 23.784 31.6592 24.4516 31.65 25.12C31.6405 25.4026 31.7249 25.6804 31.89 25.91C32.0762 26.0735 32.3125 26.1688 32.56 26.18C33.1072 26.1704 33.6526 26.1135 34.19 26.01C35 25.86 35.72 25.86 36.44 25.86C37.175 25.8503 37.9089 25.9173 38.63 26.06C39.96 26.31 39.78 26.96 39.79 27.11C39.84 27.91 39.7 28.82 39.79 29.49C39.79 29.9 39.89 30.41 39.89 30.89C39.8932 31.145 39.8526 31.3987 39.77 31.64C39.77 31.77 39.55 31.78 39.41 31.81C39.09 31.89 38.75 31.91 38.5 31.96C38.01 32.04 37.5 32.11 36.94 32.15C36.12 32.21 35.28 32.23 34.53 32.23C34.22 32.23 33.74 32.14 33.32 32.12C33.0767 32.1101 32.8334 32.1405 32.6 32.21C32.4745 32.2489 32.3623 32.3218 32.2758 32.4207C32.1893 32.5195 32.1319 32.6405 32.11 32.77C32.0767 33.0557 32.0767 33.3443 32.11 33.63C32.11 34.36 32.18 35.1 32.19 35.84V36.72C32.1644 37.3728 32.0808 38.022 31.94 38.66C31.8774 39.0111 31.722 39.3391 31.49 39.61C31.41 39.69 31.25 39.61 31.11 39.61C30.97 39.61 30.7 39.56 30.55 39.55C29.7907 39.5052 29.0293 39.5052 28.27 39.55C27.9693 39.5519 27.6687 39.5352 27.37 39.5C26.78 39.43 26.5 38.88 26.3 38.24C26.0454 37.1193 25.8915 35.9781 25.84 34.83C25.8687 34.3738 25.8687 33.9162 25.84 33.46C25.8137 33.3041 25.7569 33.155 25.6728 33.0211C25.5887 32.8873 25.479 32.7713 25.35 32.68C25.1197 32.5385 24.8656 32.4402 24.6 32.39C24.073 32.2783 23.538 32.2081 23 32.18C22.39 32.12 21.75 32.03 21.12 31.93C20.49 31.83 19.85 31.69 19.25 31.55L17.89 31.26C17.8627 31.061 17.846 30.8607 17.84 30.66C17.84 30.1 17.93 29.47 17.93 29.24C17.8952 28.6525 17.9187 28.0629 18 27.48C18.0242 27.1482 18.1539 26.8329 18.37 26.58C18.5025 26.4555 18.6641 26.3661 18.84 26.32C19.18 26.23 19.56 26.22 19.9 26.16C20.6473 26.0383 21.4029 25.9748 22.16 25.97C22.9207 25.9859 23.6793 26.0561 24.43 26.18C24.4746 26.1872 24.5203 26.1856 24.5643 26.1752C24.6083 26.1648 24.6498 26.1458 24.6865 26.1193C24.7232 26.0928 24.7543 26.0594 24.7781 26.0209C24.8018 25.9824 24.8178 25.9396 24.825 25.895C24.8322 25.8504 24.8306 25.8047 24.8202 25.7607C24.8098 25.7167 24.7908 25.6752 24.7643 25.6385C24.7378 25.6018 24.7044 25.5707 24.6659 25.5469C24.6274 25.5232 24.5846 25.5072 24.54 25.5C23.7544 25.3563 22.9585 25.276 22.16 25.26C21.3598 25.2424 20.5597 25.2993 19.77 25.43C19.387 25.4595 19.0063 25.5129 18.63 25.59C18.3202 25.6609 18.0362 25.8167 17.81 26.04C17.4819 26.4018 17.2725 26.8555 17.21 27.34C17.1202 27.9691 17.0867 28.605 17.11 29.24C17.0399 29.8776 17.0032 30.5185 17 31.16C17.0056 31.4159 17.0972 31.6625 17.26 31.86C17.3923 31.9795 17.5494 32.0683 17.72 32.12C18.13 32.25 18.78 32.33 19.05 32.4C19.66 32.55 20.31 32.7 20.97 32.82C21.63 32.94 22.28 33.04 22.92 33.1C23.24 33.1 23.71 33.17 24.14 33.25C24.3546 33.2753 24.562 33.3433 24.75 33.45C24.84 33.51 24.83 33.64 24.85 33.76V34.91C24.8593 36.3432 25.0887 37.7664 25.53 39.13C25.6608 39.4949 25.8879 39.8177 26.1871 40.0642C26.4864 40.3106 26.8467 40.4716 27.23 40.53C27.5615 40.575 27.8955 40.5984 28.23 40.6C28.9562 40.5614 29.6838 40.5614 30.41 40.6C30.7828 40.666 31.1619 40.6895 31.54 40.67C31.8096 40.6417 32.0625 40.5258 32.26 40.34C32.626 39.9352 32.8809 39.4426 33 38.91C33.1635 38.2107 33.2606 37.4976 33.29 36.78C33.3104 36.447 33.3104 36.113 33.29 35.78C33.29 35.05 33.22 34.31 33.22 33.59V33.24C33.64 33.24 34.14 33.35 34.46 33.35C35.24 33.35 36.11 33.35 36.96 33.26C37.54 33.21 38.11 33.15 38.64 33.05C39.133 33.0075 39.6177 32.8964 40.08 32.72C40.3891 32.5857 40.6357 32.3391 40.77 32.03C40.9162 31.657 40.9941 31.2606 41 30.86C41 30.35 40.93 29.8 40.89 29.36Z" fill="#E0D8CF"/>
</svg>
