<svg width="30" height="30" viewBox="0 0 30 30" fill="none" xmlns="http://www.w3.org/2000/svg">
<path fill-rule="evenodd" clip-rule="evenodd" d="M28.1741 10.3669C27.3237 10.4552 28.1741 11.4768 28.0991 17.9343C28.0477 20.5167 27.8473 23.094 27.4988 25.653C27.3112 26.9142 27.1612 26.7376 26.711 26.9142C22.159 28.6547 3.20062 29.3484 2.11264 27.2421C1.61242 26.3088 0.862093 18.4135 1.18724 14.8821C1.29979 13.5452 1.34981 12.2083 1.43735 10.884C5.84842 11.252 10.2821 11.252 14.6932 10.884C14.795 10.8664 14.8874 10.8131 14.954 10.7335C15.0206 10.6539 15.0572 10.553 15.0572 10.4489C15.0572 10.3447 15.0206 10.2439 14.954 10.1642C14.8874 10.0846 14.795 10.0313 14.6932 10.0137C13.055 9.93806 11.4918 9.83717 9.99111 9.7741C3.73836 9.50925 1.41233 10.329 1.43735 9.98851C1.64994 6.78499 2.08763 5.0571 1.83752 4.83008C1.76739 4.76076 1.67311 4.72192 1.57491 4.72192C1.47671 4.72192 1.38242 4.76076 1.31229 4.83008C0.824576 5.39764 0.912115 7.18858 0.812071 7.8192C0.712027 8.44981 0.636994 9.21916 0.574466 9.93806C0.0138631 14.117 -0.136932 18.3416 0.124268 22.5504C0.169138 24.3462 0.412415 26.1313 0.849587 27.8728C1.38504 28.6277 2.19369 29.1397 3.10058 29.2979C8.8281 30.8997 26.9736 29.5628 28.2366 27.28C28.6902 25.8314 28.9221 24.3216 28.9244 22.8026C29.2284 18.7881 29.1321 14.753 28.6368 10.7579C28.6214 10.6465 28.5655 10.5448 28.4801 10.4726C28.3946 10.4003 28.2856 10.3627 28.1741 10.3669Z" fill="black"/>
<path fill-rule="evenodd" clip-rule="evenodd" d="M4.10108 4.75445C8.38783 4.91027 12.6799 4.82185 16.9567 4.4896C17.0562 4.4896 17.1517 4.44973 17.222 4.37877C17.2924 4.30782 17.3319 4.21158 17.3319 4.11123C17.3319 4.01088 17.2924 3.91464 17.222 3.84368C17.1517 3.77272 17.0562 3.73286 16.9567 3.73286C10.8415 3.00134 9.70355 3.44278 4.05106 3.89682C3.93829 3.90351 3.83278 3.9551 3.75773 4.04025C3.68268 4.1254 3.64425 4.23713 3.65088 4.35086C3.65752 4.46459 3.70867 4.571 3.7931 4.64669C3.87753 4.72238 3.98831 4.76114 4.10108 4.75445Z" fill="black"/>
<path fill-rule="evenodd" clip-rule="evenodd" d="M4.46378 15.8785C7.71865 15.7948 10.9646 15.4956 14.1806 14.983C14.2824 14.9655 14.3748 14.9121 14.4414 14.8325C14.508 14.7529 14.5445 14.6521 14.5445 14.5479C14.5445 14.4437 14.508 14.3429 14.4414 14.2632C14.3748 14.1836 14.2824 14.1303 14.1806 14.1128C8.22794 13.6965 7.40258 14.6677 4.42627 15.1343C3.6009 15.1343 3.23824 15.4244 3.43833 15.6388C3.42583 15.828 3.80099 15.992 4.46378 15.8785Z" fill="black"/>
<path fill-rule="evenodd" clip-rule="evenodd" d="M23.7471 20.2171C23.8478 20.2639 23.9626 20.2691 24.0671 20.2317C24.1716 20.1943 24.2575 20.1172 24.3065 20.0169C24.3554 19.9165 24.3635 19.8008 24.3291 19.6945C24.2947 19.5882 24.2204 19.4997 24.1222 19.4478C23.6123 19.2073 23.0591 19.0743 22.4965 19.0568C14.6806 18.2622 13.7427 18.5649 5.27642 19.309L4.22596 19.5487C4.1282 19.5342 4.02871 19.5591 3.9491 19.6182C3.86949 19.6772 3.81619 19.7655 3.80078 19.864C3.68823 20.6333 5.05133 20.1919 5.36396 20.1667C16.3188 20.2928 22.6716 19.7126 23.7471 20.2171Z" fill="black"/>
<path fill-rule="evenodd" clip-rule="evenodd" d="M21.246 22.853C19.4692 22.773 17.689 22.8193 15.9187 22.9918C12.4922 23.3828 8.89059 24.4422 6.23942 24.3413C6.13992 24.3413 6.0445 24.3812 5.97414 24.4521C5.90378 24.5231 5.86426 24.6193 5.86426 24.7197C5.86426 24.82 5.90378 24.9163 5.97414 24.9872C6.0445 25.0582 6.13992 25.098 6.23942 25.098C7.83952 25.2746 9.45394 25.2746 11.054 25.098C16.4189 24.5935 13.5551 24.2656 21.3461 23.7737C21.6087 23.7737 22.309 23.8494 22.5966 23.5467C22.6768 23.4642 22.7217 23.3533 22.7217 23.2377C22.7217 23.1222 22.6768 23.0112 22.5966 22.9287C22.234 22.7143 21.3336 22.853 21.246 22.853Z" fill="black"/>
<path fill-rule="evenodd" clip-rule="evenodd" d="M4.101 7.9579C4.19001 8.07086 4.30314 8.16209 4.43198 8.2248C4.56082 8.28751 4.70203 8.32008 4.84508 8.32008C4.98814 8.32008 5.12935 8.28751 5.25818 8.2248C5.38702 8.16209 5.50016 8.07086 5.58916 7.9579C5.70433 7.73105 5.74224 7.47227 5.69703 7.22152C5.65183 6.97077 5.52602 6.742 5.33905 6.57055C4.41364 5.97777 3.26314 7.02459 4.101 7.9579Z" fill="black"/>
<path fill-rule="evenodd" clip-rule="evenodd" d="M7.30236 7.5796C7.3926 7.69275 7.50685 7.78405 7.63671 7.84678C7.76656 7.90951 7.90871 7.94208 8.05269 7.94208C8.19667 7.94208 8.33882 7.90951 8.46868 7.84678C8.59853 7.78405 8.71278 7.69275 8.80302 7.5796C8.92762 7.34861 8.97074 7.08179 8.9253 6.82285C8.87986 6.56392 8.74856 6.32823 8.55291 6.15441C7.615 5.59946 6.46449 6.64629 7.30236 7.5796Z" fill="black"/>
<path fill-rule="evenodd" clip-rule="evenodd" d="M12.042 6.15444C11.1166 5.61211 9.96608 6.65893 10.7914 7.59224C10.8804 7.70519 10.9936 7.79643 11.1224 7.85914C11.2513 7.92185 11.3925 7.95442 11.5355 7.95442C11.6786 7.95442 11.8198 7.92185 11.9486 7.85914C12.0775 7.79643 12.1906 7.70519 12.2796 7.59224C12.4112 7.36191 12.4595 7.09264 12.4162 6.83041C12.3728 6.56818 12.2406 6.32926 12.042 6.15444Z" fill="black"/>
<path fill-rule="evenodd" clip-rule="evenodd" d="M25.6731 0.302292C25.3381 0.519157 25.035 0.782381 24.7727 1.08425C24.7368 1.11951 24.7082 1.16167 24.6887 1.20825C24.6692 1.25482 24.6592 1.30486 24.6592 1.35542C24.6592 1.40597 24.6692 1.45602 24.6887 1.50259C24.7082 1.54916 24.7368 1.59133 24.7727 1.62658C25.0978 2.01756 25.3855 1.51307 26.0232 1.2356C27.1112 0.756335 28.7244 2.10585 28.7494 2.78691C28.7996 3.50306 28.5859 4.21269 28.1492 4.77966C27.3113 4.09859 25.2354 2.58512 24.6977 2.13107C24.6131 2.05414 24.5017 2.01424 24.3879 2.02015C24.2742 2.02607 24.1674 2.07731 24.0911 2.16261C24.0149 2.2479 23.9753 2.36027 23.9812 2.47498C23.987 2.5897 24.0378 2.69737 24.1224 2.7743C24.6351 3.25357 26.6235 4.80488 27.4113 5.54901C26.9987 6.1544 27.2613 5.7508 22.4967 11.1993C22.2076 10.6237 21.8077 10.112 21.3203 9.69404C20.8328 9.2761 20.2677 8.96031 19.6579 8.76514C23.297 3.72022 23.9723 3.55626 23.4096 3.15267C23.3706 3.11904 23.3249 3.09415 23.2757 3.07963C23.2264 3.06511 23.1747 3.0613 23.1238 3.06845C23.073 3.07561 23.0243 3.09356 22.9808 3.12112C22.9374 3.14868 22.9002 3.18523 22.8718 3.22834C19.5079 7.18861 17.4945 9.43359 17.4945 10.0894C17.3194 12.8768 17.1943 14.2263 17.607 14.6173C18.4199 15.4118 21.4587 14.3272 22.084 13.8731C22.7093 13.4191 27.849 6.92375 28.4618 6.00305C29.2732 5.09938 29.8075 3.97788 30 2.7743C29.9555 2.28346 29.7938 1.81079 29.5287 1.3967C29.2636 0.982617 28.9031 0.639433 28.4779 0.396496C28.0526 0.153559 27.5754 0.0180967 27.087 0.00169135C26.5985 -0.014714 26.1134 0.0884258 25.6731 0.302292ZM21.2461 12.675C20.4636 13.0846 19.618 13.3575 18.745 13.4821C18.595 9.69845 18.6325 10.3543 19.1952 9.52188C20.0244 10.4169 20.942 11.2241 21.9339 11.9308C21.7185 12.1915 21.4888 12.4399 21.2461 12.675Z" fill="black"/>
</svg>
